<svg xmlns="http://www.w3.org/2000/svg" width="137" height="40"><path style="stroke:none;fill-rule:nonzero;fill:#000;fill-opacity:1" d="M44.398 33.102V13.793h4.204l6.168 12.25 6.082-12.25h4.203v19.309h-3.54v-13.32l-5.394 10.562h-2.793l-5.39-10.563v13.32Zm27.68.332c-1.18 0-2.144-.188-2.902-.567-.758-.375-1.317-.879-1.688-1.5a3.981 3.981 0 0 1-.554-2.07c0-1.27.5-2.3 1.496-3.09.996-.789 2.488-1.187 4.48-1.187h3.485v-.329c0-.941-.27-1.628-.805-2.07-.535-.441-1.2-.664-1.988-.664-.723 0-1.348.172-1.883.512-.535.34-.867.84-.996 1.504h-3.457c.093-.993.43-1.86 1.011-2.594.578-.734 1.328-1.3 2.254-1.695.922-.399 1.953-.594 3.098-.594 1.953 0 3.492.484 4.617 1.46 1.121.977 1.688 2.356 1.688 4.141v8.41h-3.016l-.332-2.203a5.115 5.115 0 0 1-1.7 1.82c-.73.477-1.663.716-2.808.716Zm.8-2.758c1.017 0 1.806-.332 2.368-.992.563-.664.914-1.48 1.063-2.457h-3.012c-.942 0-1.617.171-2.02.511-.406.34-.609.758-.609 1.254 0 .535.203.95.61 1.242.402.293.94.442 1.6.442Zm10.954-13.379c-.648 0-1.176-.195-1.59-.578-.414-.387-.62-.875-.62-1.465 0-.59.206-1.07.62-1.445.414-.38.942-.567 1.59-.567.645 0 1.176.188 1.59.567.414.375.621.855.621 1.445 0 .59-.207 1.078-.621 1.465-.414.383-.945.578-1.59.578Zm-1.77 15.805v-13.68h3.54v13.68Zm5.864 0v-19.86h3.539v19.86Zm11.586-4.082c-.664 0-1.282-.07-1.852-.22l-1.023 1.02c.312.164.734.305 1.27.414.534.11 1.402.223 2.6.332 1.825.164 3.153.594 3.981 1.297.828.7 1.246 1.664 1.246 2.895 0 .812-.222 1.578-.664 2.304-.441.727-1.125 1.313-2.047 1.766-.921.453-2.101.676-3.539.676-1.953 0-3.53-.363-4.73-1.09-1.2-.727-1.797-1.816-1.797-3.27 0-1.23.598-2.3 1.797-3.199a6.105 6.105 0 0 1-.953-.523 5.35 5.35 0 0 1-.707-.582v-.633l2.406-2.539c-1.066-.938-1.602-2.14-1.602-3.613 0-.922.223-1.754.676-2.512.453-.754 1.094-1.352 1.922-1.793.832-.441 1.836-.66 3.016-.66.773 0 1.492.11 2.156.332h5.2v2.152l-2.352.164c.37.7.554 1.473.554 2.317 0 .922-.222 1.754-.664 2.511-.441.754-1.082 1.352-1.922 1.793-.84.442-1.828.66-2.972.66Zm-3.32 5.765c0 .68.32 1.192.953 1.531.636.344 1.418.512 2.34.512.921 0 1.6-.18 2.156-.539.554-.36.828-.84.828-1.45 0-.495-.18-.91-.54-1.237-.359-.332-1.074-.536-2.14-.61a22.094 22.094 0 0 1-2.102-.246c-.535.293-.917.617-1.148.965-.23.348-.348.707-.348 1.074Zm3.32-8.469c.718 0 1.312-.191 1.781-.578.473-.386.707-.937.707-1.656 0-.715-.234-1.27-.707-1.656-.469-.383-1.063-.578-1.781-.578-.758 0-1.367.195-1.825.578-.46.387-.69.941-.69 1.656 0 .719.23 1.27.69 1.656.458.387 1.067.578 1.825.578Zm13.688 7.118c-1.716 0-3.04-.536-3.97-1.598-.93-1.066-1.394-2.633-1.394-4.691v-7.723h3.512v7.39c0 1.176.238 2.083.718 2.704.48.625 1.235.941 2.266.941.98 0 1.785-.352 2.422-1.05.637-.7.953-1.673.953-2.923v-7.062h3.54v13.68h-3.126l-.277-2.317a4.828 4.828 0 0 1-1.836 1.934c-.805.476-1.738.715-2.809.715Zm10.284-.332v-13.68h3.13l.273 2.316a4.803 4.803 0 0 1 1.84-1.93c.804-.48 1.746-.718 2.835-.718 1.696 0 3.012.535 3.954 1.601.941 1.063 1.41 2.63 1.41 4.688v7.723h-3.54V25.71c0-1.176-.238-2.078-.718-2.703s-1.227-.938-2.242-.938c-1.012 0-1.809.348-2.446 1.047-.636.7-.953 1.672-.953 2.926v7.059ZM46.871 9.703c-.496 0-.934-.086-1.316-.254a2.087 2.087 0 0 1-.899-.734c-.218-.32-.332-.707-.34-1.164h1.309c.012.316.129.582.344.797.21.218.511.324.894.324.328 0 .59-.078.785-.238a.773.773 0 0 0 .29-.63c0-.261-.086-.495-.258-.648a1.816 1.816 0 0 0-.68-.375c-.281-.097-.586-.203-.91-.312-.52-.18-.922-.41-1.195-.696-.274-.285-.41-.66-.41-1.132-.008-.399.09-.743.285-1.028.199-.285.468-.508.808-.664.344-.16.738-.238 1.184-.238.445 0 .851.078 1.195.242.348.16.617.387.813.676.199.289.3.633.316 1.031h-1.328a.919.919 0 0 0-.278-.629c-.18-.183-.425-.277-.738-.277-.27-.004-.5.058-.683.2-.18.136-.274.335-.274.6 0 .227.07.403.215.536.14.133.332.246.578.336.246.09.527.183.844.289.336.117.644.25.918.406.277.156.504.36.668.613.172.254.254.579.254.98 0 .356-.09.684-.27.985a1.91 1.91 0 0 1-.8.727c-.36.183-.794.277-1.31.277Zm5.402-.117V2.828h1.235v6.758Zm4.489 0V2.828H58l3.184 4.758V2.828h1.238v6.758h-1.238L58 4.836v4.75Zm11.984.117c-.683 0-1.273-.144-1.762-.437a2.916 2.916 0 0 1-1.132-1.227c-.27-.523-.399-1.133-.399-1.82 0-.692.129-1.297.399-1.824.261-.528.64-.938 1.132-1.235.489-.297 1.079-.445 1.762-.445.813 0 1.48.2 2 .601.516.407.844.965.969 1.696h-1.363a1.496 1.496 0 0 0-.536-.867c-.273-.211-.636-.313-1.09-.313-.624 0-1.117.211-1.472.637-.356.426-.531 1.008-.531 1.75 0 .738.175 1.32.53 1.738.356.422.849.633 1.474.633.453 0 .816-.102 1.09-.293.269-.195.449-.469.535-.817h1.363c-.125.696-.453 1.239-.969 1.63-.52.394-1.187.59-2 .59Zm6-.117V2.828h1.238v2.809h3.04V2.828h1.238v6.758h-1.239V6.64h-3.039v2.945Zm0 0"/><path style="stroke:none;fill-rule:nonzero;fill:#eb5454;fill-opacity:1" d="M17.977 20.32c1.32 0 2.394-1.07 2.394-2.39a2.39 2.39 0 0 0-2.394-2.387 2.391 2.391 0 0 0-2.399 2.387c0 1.32 1.074 2.39 2.399 2.39Zm0 0"/><path style="stroke:none;fill-rule:nonzero;fill:#eb5454;fill-opacity:1" d="M29.36 19.723a1.797 1.797 0 0 1-1.801-1.793c0-5.282-4.293-9.563-9.582-9.563-5.293 0-9.586 4.285-9.586 9.563 0 5.28 4.293 9.562 9.586 9.562a9.573 9.573 0 0 0 8.449-5.047 5.408 5.408 0 0 0 6.746-.715 5.363 5.363 0 0 0 1.578-3.804c0-9.238-7.512-16.735-16.773-16.735-9.266 0-16.778 7.5-16.778 16.739 0 9.242 7.512 16.734 16.778 16.734a16.74 16.74 0 0 0 11.863-4.902l-2.543-2.535a13.153 13.153 0 0 1-9.32 3.851c-7.278 0-13.18-5.887-13.18-13.148 0-7.262 5.898-13.149 13.18-13.149 7.277 0 13.18 5.887 13.18 13.149 0 .992-.805 1.793-1.798 1.793Zm-11.383 4.183c-3.309 0-5.993-2.676-5.993-5.976 0-3.297 2.684-5.973 5.993-5.973 3.304 0 5.988 2.676 5.988 5.973 0 3.3-2.684 5.976-5.988 5.976Zm0 0"/></svg>