<svg xmlns="http://www.w3.org/2000/svg" width="124" height="40"><path style="stroke:none;fill-rule:nonzero;fill:#000;fill-opacity:1" d="M44.383 33.102V13.793h4.199l6.164 12.246 6.082-12.246h4.203v19.309h-3.539V19.777l-5.39 10.567h-2.793l-5.391-10.567v13.325Zm27.667.332c-1.179 0-2.144-.188-2.902-.567-.757-.375-1.316-.879-1.687-1.504a3.991 3.991 0 0 1-.55-2.066c0-1.27.495-2.3 1.491-3.09.996-.789 2.489-1.187 4.477-1.187h3.484v-.332c0-.938-.265-1.625-.8-2.067-.536-.441-1.2-.664-1.993-.664-.718 0-1.343.172-1.879.512-.535.34-.867.84-.996 1.504h-3.453c.094-.993.426-1.86 1.008-2.594.582-.734 1.332-1.3 2.254-1.695.922-.399 1.953-.594 3.094-.594 1.953 0 3.496.484 4.617 1.46 1.125.977 1.687 2.356 1.687 4.137v8.415h-3.015l-.328-2.207a5.137 5.137 0 0 1-1.704 1.824c-.726.476-1.66.715-2.804.715Zm.802-2.758c1.011 0 1.8-.332 2.363-.992.562-.664.918-1.48 1.066-2.457h-3.015c-.938 0-1.614.168-2.016.511-.406.34-.61.758-.61 1.254 0 .535.204.95.61 1.242.402.293.938.442 1.602.442Zm10.945-13.379c-.645 0-1.172-.195-1.586-.578-.418-.387-.625-.875-.625-1.465 0-.59.207-1.07.625-1.45.414-.374.941-.562 1.586-.562.648 0 1.176.188 1.59.563.418.379.625.86.625 1.449 0 .59-.207 1.078-.625 1.465-.414.383-.942.578-1.59.578ZM82.03 33.102v-13.68h3.535v13.68Zm5.86 0v-19.86h3.54v19.86Zm3.18 6.07v-3.008h1.078c.606 0 1.04-.121 1.297-.36.258-.234.387-.644.387-1.21V19.422h3.54v15.172c0 1.652-.419 2.828-1.259 3.531-.84.7-1.976 1.047-3.414 1.047Zm4.559-21.875c-.645 0-1.176-.195-1.59-.578-.414-.387-.621-.875-.621-1.465 0-.59.207-1.07.621-1.45.414-.374.945-.562 1.59-.562.648 0 1.176.188 1.59.563.414.379.62.86.62 1.449 0 .59-.206 1.078-.62 1.465-.414.383-.942.578-1.59.578Zm10.726 16.137c-1.382 0-2.609-.293-3.675-.883a6.4 6.4 0 0 1-2.516-2.48c-.61-1.067-.914-2.301-.914-3.7 0-1.394.3-2.676.898-3.777a6.49 6.49 0 0 1 2.489-2.582c1.062-.617 2.308-.922 3.746-.922 1.344 0 2.531.293 3.566.883a6.35 6.35 0 0 1 2.418 2.414c.582 1.02.871 2.152.871 3.406 0 .203-.004.414-.015.633-.008.222-.024.453-.04.691h-10.421c.07 1.067.445 1.903 1.117 2.512.676.605 1.492.91 2.45.91.718 0 1.323-.164 1.808-.484a2.99 2.99 0 0 0 1.093-1.254h3.594a6.576 6.576 0 0 1-1.285 2.36 6.418 6.418 0 0 1-2.215 1.667c-.87.402-1.863.606-2.969.606Zm.028-11.477c-.867 0-1.633.246-2.293.73-.664.489-1.09 1.231-1.274 2.223h6.829c-.055-.898-.387-1.617-.997-2.152-.609-.535-1.363-.801-2.265-.801ZM120.7 33.102c-1.438 0-2.587-.348-3.454-1.047-.867-.7-1.3-1.942-1.3-3.723v-5.96h-2.348v-2.95h2.347l.414-3.672h3.125v3.672h3.704v2.95h-3.704v5.987c0 .66.141 1.118.43 1.364.285.25.777.375 1.477.375h1.714v3.004ZM46.852 9.703a3.23 3.23 0 0 1-1.317-.254 2.115 2.115 0 0 1-.898-.734c-.219-.32-.332-.707-.34-1.164h1.308c.012.316.125.578.34.797.215.218.516.324.895.324.328 0 .594-.078.785-.238a.762.762 0 0 0 .29-.63c0-.265-.087-.495-.255-.648-.168-.156-.398-.281-.68-.379-.285-.093-.59-.199-.91-.308-.52-.18-.922-.41-1.195-.696-.273-.285-.41-.66-.41-1.132-.008-.399.09-.743.285-1.028.2-.285.469-.508.809-.664.343-.16.738-.238 1.183-.238.446 0 .848.078 1.196.242.343.16.613.383.812.676.195.289.3.633.313 1.031h-1.329a.89.89 0 0 0-.273-.629c-.18-.183-.426-.277-.742-.277a1.033 1.033 0 0 0-.68.2c-.184.136-.277.335-.277.6 0 .223.074.403.215.536.144.129.336.246.582.332.246.09.523.187.843.293.332.117.641.25.918.406.278.156.5.36.668.613.168.254.25.579.25.98 0 .356-.09.68-.27.985a1.91 1.91 0 0 1-.8.727c-.355.183-.793.277-1.305.277Zm5.398-.117V2.828h1.234v6.758Zm4.488 0V2.828h1.235l3.183 4.758V2.828h1.239v6.758h-1.239l-3.183-4.75v4.75Zm11.977.117c-.684 0-1.27-.144-1.762-.437a2.94 2.94 0 0 1-1.133-1.227c-.265-.527-.398-1.133-.398-1.82 0-.692.133-1.297.398-1.824a2.914 2.914 0 0 1 1.133-1.235c.492-.297 1.078-.445 1.762-.445.812 0 1.48.2 2 .601.515.403.844.965.969 1.696H70.32a1.458 1.458 0 0 0-.535-.867c-.273-.211-.637-.313-1.09-.313-.625 0-1.117.211-1.472.637-.356.426-.532 1.008-.532 1.75 0 .738.176 1.32.532 1.738.355.422.847.633 1.472.633.453 0 .817-.102 1.09-.293a1.35 1.35 0 0 0 .535-.817h1.364c-.125.696-.454 1.239-.97 1.63-.519.394-1.187.59-2 .59Zm6-.117V2.828h1.238v2.809h3.035V2.828h1.239v6.758h-1.239V6.64h-3.035v2.945Zm0 0"/><path style="stroke:none;fill-rule:nonzero;fill:#857aeb;fill-opacity:1" d="M32.309 3.621a3.002 3.002 0 0 0-3.23-.664l-24.872 9.93a2.952 2.952 0 0 0-1.879 2.652 2.954 2.954 0 0 0 1.649 2.797l7.363 3.672 2.68-2.672-7.243-3.613 22.336-8.918-8.933 22.293-3.621-7.227-2.676 2.672 3.68 7.348a2.951 2.951 0 0 0 2.667 1.652h.133a2.963 2.963 0 0 0 2.657-1.879L32.969 6.84a2.983 2.983 0 0 0-.664-3.223Zm0 0"/></svg>