<svg width="106" height="18" fill="none" xmlns="http://www.w3.org/2000/svg"><g clip-path="url(#a)" fill-rule="evenodd" clip-rule="evenodd" fill="#22252B"><g opacity=".2"><path d="M35.965 3.337c-1.888 1.802-5.513 3.025-9.696 3.025-3.11 0-5.92-.687-7.937-1.78-2.316-1.266-5.513-3.025-9.695-3.025-3.11 0-5.92.686-7.937 1.78V2.48C2.716 1.385 5.526.7 8.637.7c4.182 0 7.379 1.759 9.695 3.024 2.017 1.094 4.827 1.78 7.937 1.78 4.183 0 7.808-1.222 9.696-3.024v.858z"/><path d="M35.965 6.984c-1.888 1.801-5.513 3.024-9.696 3.024-3.11 0-5.92-.686-7.937-1.78-2.316-1.266-5.513-3.025-9.695-3.025-3.11 0-5.92.687-7.937 1.78v-.857c2.016-1.094 4.826-1.78 7.937-1.78 4.182 0 7.379 1.758 9.695 3.024 2.017 1.094 4.827 1.78 7.937 1.78 4.183 0 7.808-1.223 9.696-3.024v.858z"/><path d="M35.965 10.63c-1.888 1.802-5.513 3.025-9.696 3.025-3.11 0-5.92-.687-7.937-1.78-2.316-1.266-5.513-3.025-9.695-3.025-3.11 0-5.92.686-7.937 1.78v-.858c2.016-1.094 4.826-1.78 7.937-1.78 4.182 0 7.379 1.759 9.695 3.024 2.017 1.094 4.827 1.78 7.937 1.78 4.183 0 7.808-1.222 9.696-3.024v.858z"/><path d="M35.965 14.277c-1.888 1.802-5.513 3.025-9.696 3.025-3.11 0-5.92-.687-7.937-1.78-2.316-1.266-5.513-3.025-9.695-3.025-3.11 0-5.92.686-7.937 1.78v-.858c2.016-1.094 4.826-1.78 7.937-1.78 4.182 0 7.379 1.759 9.695 3.024 2.017 1.094 4.827 1.78 7.937 1.78 4.183 0 7.808-1.222 9.696-3.024v.858z"/></g><path d="M17.174 2.78h-1.823V.955h6.456c4.033 0 4.87 2.66 4.87 4.505 0 1.48-.601 2.617-1.223 3.239-1.008 1.008-2.381 1.244-4.462 1.244h-1.63v3.754h1.909v1.823h-5.92v-1.823h1.823V2.779zm4.011 5.405c2.681 0 3.26-1.244 3.26-2.746 0-1.716-.965-2.66-2.573-2.66h-2.51v5.406h1.823zm11.54-3.089c3.047 0 5.32 2.295 5.32 5.363 0 3.067-2.295 5.362-5.34 5.362-3.047 0-5.32-2.295-5.32-5.362 0-3.068 2.273-5.363 5.34-5.363zm-.02 8.795c1.822 0 3.195-1.459 3.195-3.432 0-1.974-1.373-3.432-3.196-3.432-1.823 0-3.175 1.48-3.175 3.432s1.373 3.432 3.175 3.432zm7.035-1.845h1.78v.343c.172 1.008 1.094 1.63 2.424 1.63 1.33 0 2.08-.493 2.08-1.265 0-1.888-3.56-.687-5.49-2.617a2.777 2.777 0 0 1-.794-1.93c0-1.738 1.501-2.982 3.56-2.982.923 0 1.803.214 2.467.579v-.408h1.76v3.347h-1.76V8.12c-.579-.859-1.33-1.245-2.36-1.245-1.029 0-1.78.494-1.78 1.245 0 1.694 3.904.707 5.578 2.38.6.601.858 1.395.858 2.103 0 1.844-1.566 3.089-3.883 3.089-1.094 0-1.93-.236-2.66-.73v.558h-1.78v-3.475zm9.588-6.65h1.309V3.83l2.016-1.823v3.39h1.866v1.758h-1.866v5.856c0 .987.88.944 1.866.6v1.803c-.472.15-1.008.279-1.48.279-1.416 0-2.402-.644-2.402-2.403V7.155h-1.309V5.396zm8.28 1.76h-1.694v-1.76h3.71v1.266c1.18-.944 2.317-1.437 3.432-1.437 1.116 0 2.017.557 2.446 1.587 1.459-1.137 2.488-1.587 3.646-1.587 1.674 0 2.703 1.03 2.703 2.788v5.749h1.738v1.759h-3.754V8.464c0-.987-.45-1.48-1.223-1.48-.815 0-1.866.493-2.874 1.33v5.448h1.737v1.759h-3.753V8.507c0-1.073-.601-1.438-1.245-1.438-.729 0-1.63.387-2.853 1.245v5.448h1.738v1.759h-5.599v-1.759h1.845V7.155zm27.264 8.365h-3.518v-1.244c-1.266 1.03-2.145 1.416-3.26 1.416-1.931 0-3.433-1.416-3.433-3.218s1.609-3.282 3.69-3.282c.9 0 1.952.322 2.767.858v-1.33c0-1.437-1.051-1.952-2.252-1.952-.966 0-1.716.408-2.167 1.201l-1.91-.514c.859-1.566 2.318-2.36 4.377-2.36 2.96 0 3.968 1.48 3.968 3.11v5.556h1.738v1.759zm-3.754-3.775c-.858-.665-1.76-1.008-2.617-1.008-1.116 0-1.93.729-1.93 1.737s.75 1.673 1.823 1.673c.9 0 1.909-.45 2.724-1.201v-1.201zm6.5-4.59H85.58v-1.76h3.625V7.67h.043c.643-1.695 1.93-2.445 3.196-2.445h1.308V7.24H92.68c-2.339 0-3.046 1.309-3.046 3.625v2.896h2.188v1.759h-6.2v-1.759h1.995V7.155zm8.344-4.441h-1.824V.956h3.84v9.095l3.797-2.982v-.042h-1.695v-1.63h5.62v1.63h-1.566l-3.797 3.153 3.583 3.582h1.737v1.759h-2.574l-5.105-5.105v3.346h1.501v1.759h-5.362v-1.759h1.844V2.715z"/></g><defs><clipPath id="a"><path fill="#fff" transform="translate(.7 .699)" d="M0 0h105v16.603H0z"/></clipPath></defs></svg>