<svg width="110" height="43" viewBox="0 0 120 48" xmlns="http://www.w3.org/2000/svg" fill-rule="evenodd" clip-rule="evenodd" stroke-linejoin="round" stroke-miterlimit="2"><g fill-rule="nonzero"><path d="M68.213 47.484a2.194 2.194 0 0 1-1.373-.476 2.218 2.218 0 0 1-.514-2.877c.143-.236 14.205-23.685 6.949-35.373-1.515-2.442-3.218-3.724-5.055-3.818-3.566-.157-7.47 3.833-8.67 5.393a2.22 2.22 0 0 1-1.74.847 2.22 2.22 0 0 1-2.209-2.212c0-.48.158-.945.447-1.332.236-.3 5.76-7.428 12.393-7.11 3.368.169 6.259 2.153 8.584 5.899 5.438 8.753 1.609 21.799-2.171 30.596 3.934-2.726 8.79-5.407 13.425-6.131a2.214 2.214 0 0 1 2.554 2.186 2.22 2.22 0 0 1-1.872 2.183c-8.647 1.342-19.098 11.494-19.2 11.595-.412.405-.971.63-1.548.63z" fill="#7cb1f4"/><path d="M13.8 28.888c0 1.181-.307 2.227-.93 3.153-.619.927-1.515 1.643-2.681 2.145-1.166.507-2.524.765-4.11.765-1.313 0-2.396-.09-3.3-.255-.904-.161-1.819-.487-2.779-.93v-4.582a16.82 16.82 0 0 0 3.158 1.177c1.083.297 2.1.424 3.018.424.788 0 1.369-.131 1.737-.394.367-.266.555-.607.555-1.012a1.111 1.111 0 0 0-.225-.683c-.147-.195-.387-.393-.713-.592-.326-.199-1.2-.604-2.621-1.223-1.286-.566-2.246-1.113-2.903-1.642a4.91 4.91 0 0 1-1.428-1.823C.266 22.73.113 21.92.113 20.979c0-1.766.66-3.12 1.98-4.103 1.323-.978 3.138-1.47 5.445-1.47 2.04 0 4.121.454 6.24 1.365l-1.632 3.972c-1.841-.814-3.431-1.223-4.77-1.223-.694 0-1.196.116-1.511.353-.315.232-.473.525-.473.881 0 .371.199.709.6 1.001.402.296 1.485.836 3.255 1.616 1.699.739 2.877 1.53 3.537 2.378.663.844.993 1.912.993 3.199l.023-.06zm11.077 5.778-4.027-13.71h-.124l.285 5.442v8.268h-4.717V15.631h7.091l4.11 13.515h.105l4.039-13.515h7.102v19.035h-4.905v-8.343l.023-1.448.18-3.892h-.12l-3.975 13.683h-5.067zm25.688 0h-5.321V19.835h-4.812v-4.204h14.933v4.204h-4.796l-.004 14.831zm21.364-12.993c0 2.126-.653 3.768-1.946 4.927-1.298 1.159-3.158 1.736-5.535 1.736h-1.497v6.315H57.63V15.616h6.818c2.486 0 4.353.529 5.606 1.579 1.249 1.05 1.875 2.543 1.875 4.481v-.003zm-9.004 2.475h.997c.799 0 1.437-.218 1.894-.653.458-.435.709-1.031.709-1.796 0-1.286-.739-1.928-2.209-1.928h-1.391v4.377zm27.221-.627h8.505v10.26c-2.31.762-4.848 1.144-7.612 1.144-3.038 0-5.385-.851-7.043-2.55-1.653-1.699-2.486-4.125-2.486-7.279 0-3.071.911-5.463 2.723-7.173 1.811-1.71 4.357-2.565 7.627-2.565 1.178 0 2.355.116 3.51.341a14.25 14.25 0 0 1 2.876.859l-1.684 4.035c-1.417-.675-2.977-1.017-4.676-1.017-1.552 0-2.756.492-3.603 1.467-.848.975-1.272 2.373-1.272 4.185 0 1.766.383 3.135 1.151 4.068.769.934 1.876 1.399 3.319 1.399a9.92 9.92 0 0 0 2.183-.221v-2.981h-3.518v-3.972zM120 25.123c0 3.206-.81 5.64-2.437 7.305-1.628 1.668-4.009 2.501-7.144 2.501-3.094 0-5.46-.836-7.11-2.524-1.65-1.687-2.475-4.117-2.475-7.32 0-3.154.821-5.587 2.464-7.256 1.638-1.669 4.023-2.509 7.147-2.509 3.135 0 5.512.833 7.129 2.49 1.616 1.654 2.415 4.114 2.415 7.313H120zm-13.556 0c0 3.682 1.323 5.523 3.975 5.523 1.346 0 2.347-.446 3-1.342.648-.893.975-2.288.975-4.163 0-1.901-.33-3.307-.99-4.215-.656-.907-1.647-1.387-2.959-1.387-2.67 0-4.001 1.856-4.001 5.572v.012z" fill="#222a35"/></g></svg>