<svg width="106" height="38" fill="none" xmlns="http://www.w3.org/2000/svg"><g clip-path="url(#a)"><path d="m.3 24.384 1.648-1.975c1.143.942 2.328 1.54 3.788 1.54 1.14 0 1.83-.452 1.83-1.195v-.036c0-.707-.435-1.07-2.556-1.612-2.554-.654-4.202-1.361-4.202-3.88v-.035c0-2.302 1.847-3.824 4.444-3.824a7.35 7.35 0 0 1 4.71 1.613l-1.45 2.103c-1.123-.78-2.23-1.25-3.299-1.25-1.068 0-1.629.488-1.629 1.104v.036c0 .834.544 1.107 2.736 1.667 2.573.671 4.02 1.596 4.02 3.81v.035c0 2.52-1.92 3.932-4.655 3.932A8.053 8.053 0 0 1 .3 24.383zM12.05 13.55h5.183c3.026 0 4.854 1.794 4.854 4.384v.036c0 2.935-2.283 4.458-5.127 4.458h-2.116v3.81H12.05v-12.69zm5 6.396c1.395 0 2.212-.834 2.212-1.921v-.036c0-1.25-.87-1.922-2.266-1.922h-2.154v3.88h2.209zm8.988-6.477h2.573l5.436 12.775H31.13l-1.16-2.847h-5.362l-1.16 2.847h-2.845l5.436-12.775zm2.935 7.455L27.28 16.81l-1.693 4.114h3.386zm6.395-7.374h5.793c1.613 0 2.864.452 3.697 1.286.705.707 1.086 1.703 1.086 2.899v.036c0 2.048-1.105 3.335-2.717 3.932l3.098 4.53h-3.259l-2.72-4.059h-2.19v4.06h-2.788V13.548zm5.616 6.16c1.358 0 2.14-.725 2.14-1.795v-.036c0-1.196-.835-1.812-2.195-1.812h-2.772v3.642h2.827zm19.8-6.16h4.602c2.791 0 4.713 1.43 4.713 3.876v.036c0 2.664-2.302 4.042-4.948 4.042h-3.425v4.73h-.942V13.548zm4.423 7.084c2.355 0 3.948-1.232 3.948-3.117v-.027c0-2.013-1.557-3.062-3.84-3.062h-3.598v6.206h3.49zm19.982 3.75.616-.707c1.396 1.286 2.683 1.885 4.55 1.885 1.865 0 3.207-1.069 3.207-2.518v-.036c0-1.341-.709-2.116-3.597-2.7-3.045-.616-4.277-1.648-4.277-3.57v-.036c0-1.885 1.72-3.335 4.078-3.335 1.847 0 3.062.508 4.348 1.54l-.599.743a5.45 5.45 0 0 0-3.787-1.43c-1.865 0-3.098 1.058-3.098 2.391v.032c0 1.341.69 2.156 3.697 2.772 2.937.599 4.168 1.648 4.168 3.498v.036c0 2.048-1.758 3.46-4.204 3.46-2.021.004-3.579-.667-5.102-2.025zm14.749-9.965h-4.423v-.87h9.785v.87h-4.421v11.814h-.941V14.42zm-49.292 4.467 4.39-5.337h3.408l-5.153 6.025 5.523 6.66h-3.597l-4.571-5.664v5.663h-2.79V13.55h2.79v5.337z" fill="#50575E"/><path d="M82.292 10.659c-1.414 1.058-1.693 2.945-1.729 4.217C78.33 12.294 84.7 4.696 77.463 0c4.48 5.798-6.376 11.497-6.376 20.037 0 3.35 2.093 6.3 6.687 7.324 4.507-.96 6.731-3.974 6.731-7.322 0-4.992-3.106-6.663-2.213-9.38zm-4.507 13.966a4.443 4.443 0 1 1 0-8.888 4.443 4.443 0 1 1 0 8.888z" fill="#FA6423"/></g><defs><clipPath id="a"><path fill="#fff" transform="translate(.3)" d="M0 0h105v27.361H0z"/></clipPath></defs></svg>