<svg width="106" height="38" fill="none" xmlns="http://www.w3.org/2000/svg"><g clip-path="url(#a)"><path d="M105.7 8.627v24.91l-3.38 3.38V12.53l3.38-3.903Z" fill="#DC7E28"/><path d="M102.339 12.53H79.557v24.387h22.782V12.53Z" fill="url(#b)"/><path d="m83.124 8.646-3.567 3.884h22.763l3.38-3.903-22.576.019Z" fill="#FDD600"/><path d="m54.909 9.71 22.408-3.12-1.887 5.38-22.09 3.007 1.568-5.266Z" fill="#90C7EA"/><path d="m75.43 11.97 3.119 21.847-22.09 3.1-3.119-21.941 22.09-3.007Z" fill="url(#c)"/><path d="m75.43 11.97 3.119 21.847 1.68-4.724-2.894-22.371-.018-.13" fill="#0B98D5"/><path d="m35.992 7.842 19.832 8.963-8.945 20.298-19.831-8.944 8.945-20.317Z" fill="url(#d)"/><path d="m33.938.896 2.055 6.946 19.83 8.964-1.661-6.648L33.938.896Z" fill="#95CEA0"/><path d="m33.938.896-7.992 18.935 1.102 8.328 8.945-20.317L33.938.896Z" fill="#69BF6D"/><path d="m22.865 11.932 3.268 21.512L4.23 36.88.7 15.33l22.165-3.398Z" fill="url(#e)"/><path d="m24.36 4.108 3.248 21.698-1.475 7.638-3.268-21.512 1.494-7.824Z" fill="#761216"/><path d="M98.847 21.306c-.448-1.14-1.12-2.148-1.998-3.044a8.47 8.47 0 0 0-2.839-1.942 8.885 8.885 0 0 0-3.398-.654 9.147 9.147 0 0 0-3.436.654c-1.064.43-1.998 1.083-2.838 1.942a8.67 8.67 0 0 0-1.98 3.025c-.448 1.14-.653 2.372-.653 3.697 0 1.326.224 2.559.672 3.698a9.092 9.092 0 0 0 1.98 3.062c.821.84 1.755 1.494 2.8 1.923 1.046.43 2.204.654 3.455.654a8.816 8.816 0 0 0 3.398-.654 8.667 8.667 0 0 0 2.858-1.923 9.145 9.145 0 0 0 1.998-3.062c.448-1.14.672-2.372.672-3.698-.019-1.307-.243-2.54-.691-3.678Zm-4.687 8.03c-.878 1.045-2.054 1.568-3.567 1.587-1.53 0-2.707-.523-3.585-1.569-.878-1.046-1.326-2.502-1.326-4.35 0-1.85.448-3.362 1.307-4.408.878-1.064 2.054-1.587 3.586-1.587 1.53 0 2.689.523 3.566 1.587.878 1.065 1.307 2.521 1.307 4.407.038 1.849-.41 3.287-1.288 4.332Zm-73.648.672c-.168-.206-.41-.355-.69-.467a3.481 3.481 0 0 0-1.065-.15c-.392 0-.84.038-1.344.131l-5.79.99c.057-.448.281-1.027.673-1.737.43-.803 1.083-1.755 1.924-2.876.298-.392.522-.69.672-.896.112-.13.261-.336.467-.597 1.325-1.737 2.147-3.156 2.464-4.258.187-.635.28-1.27.337-1.905.018-.168.018-.354.018-.522 0-.449-.037-.916-.112-1.345-.075-.41-.168-.747-.299-1.008-.13-.262-.298-.467-.504-.598-.243-.15-.56-.205-1.008-.205-.355 0-.784.037-1.289.13l-6.703 1.14c-.803.13-1.4.373-1.793.728a1.45 1.45 0 0 0-.467 1.083c0 .112.019.224.038.336.093.56.392.99.859 1.195.28.13.616.187 1.027.187.261 0 .56-.038.896-.075l5.602-.952c.019.093.019.205.019.299 0 .354-.057.69-.187 1.027-.168.466-.579 1.12-1.251 1.96-.187.224-.467.58-.86 1.065-1.512 1.83-2.595 3.38-3.248 4.687a10.54 10.54 0 0 0-.971 2.633c-.112.504-.15.99-.15 1.456 0 .336.019.654.075.971.075.448.187.822.336 1.102.15.299.336.504.579.635.224.112.541.168.97.168.561 0 1.308-.075 2.26-.243l6.07-1.046c1.082-.186 1.83-.448 2.259-.803.354-.28.523-.672.523-1.139 0-.112-.02-.243-.038-.355a1.327 1.327 0 0 0-.299-.746ZM48.018 15.48a8.258 8.258 0 0 0-2.838-1.942c-1.102-.467-2.222-.71-3.343-.71h-.056c-1.12.019-2.24.28-3.36.766a9.344 9.344 0 0 0-3.045 2.129 10.663 10.663 0 0 0-2.091 3.267 10.656 10.656 0 0 0-.878 3.772c0 .15-.018.28-.018.43 0 1.12.186 2.203.578 3.268a8.304 8.304 0 0 0 1.793 2.913c.784.821 1.755 1.475 2.895 1.96a8.42 8.42 0 0 0 3.323.691h.038c1.139 0 2.26-.242 3.36-.728a9.557 9.557 0 0 0 3.063-2.147c.878-.915 1.569-1.998 2.11-3.268a10.74 10.74 0 0 0 .878-3.772v-.355a9.58 9.58 0 0 0-.597-3.305c-.43-1.158-1.027-2.148-1.812-2.97Zm-2.166 8.85c-.747 1.756-1.736 2.97-2.95 3.642-.654.355-1.326.542-2.017.542a4.632 4.632 0 0 1-1.867-.411c-1.382-.598-2.26-1.55-2.633-2.876a5.013 5.013 0 0 1-.187-1.419c0-.99.243-2.073.747-3.23.766-1.793 1.755-3.026 2.988-3.698.653-.355 1.325-.541 2.016-.541.617 0 1.233.13 1.886.41 1.382.58 2.241 1.532 2.596 2.895.112.448.187.896.187 1.4 0 .971-.262 2.073-.766 3.287Zm25.825-8.178c-.093-.672-.336-1.195-.71-1.531-.298-.28-.672-.411-1.101-.411-.112 0-.224 0-.336.019-.579.074-1.008.354-1.289.784a2.2 2.2 0 0 0-.298 1.139c0 .168.018.355.037.523l.803 5.677-6.349.933-.803-5.677c-.093-.653-.317-1.176-.69-1.512a1.569 1.569 0 0 0-1.103-.43c-.093 0-.205 0-.298.02-.598.092-1.046.354-1.326.783-.206.318-.299.691-.299 1.14 0 .168.019.354.037.541l2.166 14.79c.094.672.337 1.194.729 1.53.298.262.69.393 1.12.393a2.8 2.8 0 0 0 .374-.038c.541-.074.97-.336 1.232-.784.187-.317.28-.69.28-1.12a5.65 5.65 0 0 0-.037-.542l-.897-5.845 6.35-.933.896 5.844c.093.673.336 1.177.71 1.532.298.261.69.41 1.12.41.112 0 .224 0 .336-.018.579-.075 1.008-.336 1.27-.785.186-.317.28-.69.28-1.12a5.54 5.54 0 0 0-.038-.541l-2.166-14.771Z" fill="#fff"/><path d="m.7 15.33.43-2.165 1.101-5.51L24.36 4.109l-1.494 7.824L.7 15.331Z" fill="#EC473F"/></g><defs><linearGradient id="b" x1="79.324" y1="11.917" x2="101.915" y2="36.805" gradientUnits="userSpaceOnUse"><stop stop-color="#F8C51B"/><stop offset="1" stop-color="#E78F24"/></linearGradient><linearGradient id="c" x1="54.137" y1="14.961" x2="77.434" y2="33.669" gradientUnits="userSpaceOnUse"><stop stop-color="#1F8ACA"/><stop offset="1" stop-color="#01659E"/></linearGradient><linearGradient id="d" x1="41.436" y1="15.976" x2="41.436" y2="36.39" gradientUnits="userSpaceOnUse"><stop stop-color="#269F49"/><stop offset="1" stop-color="#008A54"/></linearGradient><linearGradient id="e" x1="11.82" y1="13.979" x2="15.331" y2="35.175" gradientUnits="userSpaceOnUse"><stop stop-color="#D81F32"/><stop offset="1" stop-color="#BB2637"/></linearGradient><clipPath id="a"><path fill="#fff" transform="translate(.7 .896)" d="M0 0h105v36.208H0z"/></clipPath></defs></svg>