<svg width="32" height="33" viewBox="0 0 32 33" fill="none" xmlns="http://www.w3.org/2000/svg">
<path d="M21.2854 13.6616C19.7355 14.8217 19.4292 16.8913 19.3898 18.2858C16.942 15.4551 23.9258 7.12335 15.9907 1.97485C20.9026 8.33216 9 14.5804 9 23.9447C9 27.6175 11.2947 30.8519 16.3318 31.9749C21.2738 30.9215 23.7123 27.6175 23.7123 23.947C23.7123 18.4737 20.3063 16.6407 21.2854 13.6616ZM16.3434 28.9749C13.652 28.9749 11.471 26.7939 11.471 24.1025C11.471 21.411 13.652 19.2301 16.3434 19.2301C19.0348 19.2301 21.2158 21.411 21.2158 24.1025C21.2158 26.7939 19.0348 28.9749 16.3434 28.9749Z" fill="#FA6423"/>
</svg>
