<svg width="32" height="33" viewBox="0 0 32 33" fill="none" xmlns="http://www.w3.org/2000/svg">
<g clip-path="url(#clip0_1173_11821)">
<path d="M32 13.3309V20.9226L30.97 21.9527V14.5203L32 13.3309Z" fill="#DC7E28"/>
<path d="M30.9756 14.5204H24.0327V21.9527H30.9756V14.5204Z" fill="url(#paint0_linear_1173_11821)"/>
<path d="M25.1197 13.3366L24.0327 14.5203H30.9699L32 13.3309L25.1197 13.3366Z" fill="#FDD600"/>
<path d="M16.5208 13.661L23.3499 12.7106L22.7751 14.3496L16.0427 15.2658L16.5208 13.661Z" fill="#90C7EA"/>
<path d="M22.7751 14.3496L23.7255 21.008L16.9931 21.9527L16.0427 15.2658L22.7751 14.3496Z" fill="url(#paint1_linear_1173_11821)"/>
<path d="M22.7751 14.3496L23.7255 21.0079L24.2377 19.5681L23.3556 12.7504L23.3499 12.7106" fill="#0B98D5"/>
<path d="M10.7557 13.0919L16.7995 15.8236L14.0735 22.0096L8.02979 19.2836L10.7557 13.0919Z" fill="url(#paint2_linear_1173_11821)"/>
<path d="M10.1299 10.9749L10.7559 13.0919L16.7996 15.8235L16.2931 13.7975L10.1299 10.9749Z" fill="#95CEA0"/>
<path d="M10.1298 10.9749L7.69409 16.7454L8.02986 19.2836L10.7558 13.0919L10.1298 10.9749Z" fill="#69BF6D"/>
<path d="M6.75511 14.3381L7.75102 20.8941L1.07558 21.9412L0 15.3739L6.75511 14.3381Z" fill="url(#paint3_linear_1173_11821)"/>
<path d="M7.2104 11.9537L8.20062 18.5666L7.75104 20.8942L6.75513 14.3382L7.2104 11.9537Z" fill="#761216"/>
<path d="M29.9114 17.195C29.7748 16.8479 29.57 16.5405 29.3025 16.2674C29.0464 16.0056 28.7562 15.8064 28.4375 15.6755C28.1188 15.5446 27.7716 15.4763 27.4017 15.4763C27.0318 15.4763 26.679 15.5446 26.3546 15.6755C26.0302 15.8064 25.7457 16.0056 25.4896 16.2674C25.2221 16.5349 25.0172 16.8479 24.8864 17.1893C24.7498 17.5365 24.6872 17.9121 24.6872 18.3161C24.6872 18.7202 24.7555 19.0958 24.892 19.4429C25.0286 19.7901 25.2278 20.1031 25.4953 20.3762C25.7457 20.6323 26.0302 20.8315 26.3489 20.9624C26.6676 21.0933 27.0204 21.1616 27.4017 21.1616C27.783 21.1616 28.1131 21.0933 28.4375 20.9624C28.7562 20.8315 29.0464 20.638 29.3082 20.3762C29.5757 20.1031 29.7805 19.7901 29.9171 19.4429C30.0537 19.0958 30.122 18.7202 30.122 18.3161C30.1163 17.9177 30.048 17.5421 29.9114 17.195ZM28.483 19.6421C28.2155 19.9608 27.857 20.1201 27.396 20.1258C26.9294 20.1258 26.5709 19.9665 26.3034 19.6478C26.0359 19.3291 25.8993 18.8852 25.8993 18.3218C25.8993 17.7584 26.0359 17.2974 26.2977 16.9787C26.5652 16.6544 26.9237 16.495 27.3904 16.495C27.857 16.495 28.2098 16.6544 28.4773 16.9787C28.7448 17.3031 28.8757 17.747 28.8757 18.3218C28.8871 18.8852 28.7505 19.3234 28.483 19.6421ZM6.03805 19.847C5.98683 19.7844 5.91285 19.7388 5.82749 19.7047C5.73643 19.6762 5.634 19.6592 5.5031 19.6592C5.38359 19.6592 5.24701 19.6705 5.09336 19.699L3.32918 20.0006C3.34625 19.864 3.41454 19.6876 3.53405 19.4714C3.66494 19.2267 3.86412 18.9364 4.12021 18.595C4.21127 18.4755 4.27956 18.3844 4.32509 18.3218C4.35923 18.282 4.40476 18.2194 4.46736 18.1397C4.87141 17.6104 5.12181 17.1779 5.21856 16.8422C5.27547 16.6487 5.30392 16.4552 5.32099 16.2617C5.32669 16.2105 5.32669 16.1536 5.32669 16.1023C5.32669 15.9658 5.3153 15.8235 5.29254 15.6926C5.26978 15.5674 5.24132 15.465 5.20149 15.3853C5.16165 15.3056 5.11043 15.243 5.04783 15.2032C4.97385 15.1577 4.8771 15.1406 4.74052 15.1406C4.63239 15.1406 4.5015 15.152 4.34785 15.1804L2.30481 15.5276C2.0601 15.5674 1.87799 15.6414 1.75848 15.7495C1.66743 15.8349 1.61621 15.9487 1.61621 16.0796C1.61621 16.1137 1.6219 16.1479 1.62759 16.182C1.65605 16.3527 1.7471 16.4836 1.88937 16.5462C1.97474 16.5861 2.07717 16.6031 2.20237 16.6031C2.28205 16.6031 2.3731 16.5918 2.47554 16.5804L4.18281 16.2901C4.1885 16.3186 4.1885 16.3527 4.1885 16.3812C4.1885 16.4893 4.17143 16.5918 4.13159 16.6942C4.08038 16.8365 3.95518 17.0357 3.7503 17.2917C3.69339 17.36 3.60803 17.4682 3.48852 17.6161C3.02756 18.1738 2.69748 18.6462 2.4983 19.0445C2.35603 19.3177 2.25928 19.5852 2.20237 19.847C2.16823 20.0006 2.15685 20.1486 2.15685 20.2909C2.15685 20.3933 2.16254 20.49 2.17961 20.5868C2.20237 20.7234 2.23652 20.8372 2.28205 20.9225C2.32757 21.0136 2.38448 21.0762 2.45847 21.116C2.52676 21.1502 2.6235 21.1673 2.75439 21.1673C2.92512 21.1673 3.15276 21.1445 3.44299 21.0933L5.29254 20.7746C5.62261 20.7177 5.85025 20.638 5.98114 20.5299C6.08927 20.4445 6.14049 20.325 6.14049 20.1827C6.14049 20.1486 6.1348 20.1087 6.1291 20.0746C6.12341 19.9892 6.08927 19.9096 6.03805 19.847ZM14.4208 15.4194C14.1817 15.169 13.8972 14.9699 13.5557 14.8276C13.22 14.6853 12.8785 14.6113 12.5371 14.6113H12.52C12.1785 14.617 11.8371 14.6967 11.4956 14.8447C11.1428 14.9983 10.8355 15.2146 10.568 15.4934C10.3062 15.7723 10.09 16.1023 9.93063 16.4893C9.7656 16.8706 9.68023 17.2576 9.66316 17.6389C9.66316 17.6844 9.65747 17.7243 9.65747 17.7698C9.65747 18.1112 9.71438 18.4413 9.83389 18.7657C9.95909 19.1071 10.1412 19.4031 10.3802 19.6535C10.6192 19.9039 10.9152 20.1031 11.2623 20.251C11.5981 20.3933 11.9338 20.4616 12.2753 20.4616H12.2867C12.6338 20.4616 12.9753 20.3876 13.311 20.2396C13.6696 20.0803 13.9769 19.864 14.2443 19.5852C14.5118 19.3063 14.7224 18.9763 14.8874 18.5893C15.0525 18.2023 15.1378 17.821 15.1549 17.4397V17.3316C15.1549 16.9901 15.0923 16.6487 14.9728 16.3243C14.8419 15.9715 14.6598 15.6698 14.4208 15.4194ZM13.7606 18.1169C13.533 18.6519 13.2314 19.0218 12.8615 19.2267C12.6623 19.3348 12.4574 19.3917 12.2468 19.3917C12.0647 19.3917 11.8712 19.3519 11.6777 19.2665C11.2566 19.0844 10.9891 18.7941 10.8753 18.3901C10.8355 18.2535 10.8184 18.1112 10.8184 17.9576C10.8184 17.656 10.8924 17.3259 11.0461 16.9731C11.2794 16.4267 11.581 16.0511 11.9566 15.8463C12.1558 15.7381 12.3607 15.6812 12.5712 15.6812C12.759 15.6812 12.9468 15.7211 13.146 15.8064C13.5671 15.9828 13.8289 16.2731 13.937 16.6885C13.9712 16.8251 13.9939 16.9617 13.9939 17.1153C13.9939 17.4113 13.9143 17.747 13.7606 18.1169ZM21.6312 15.6243C21.6027 15.4194 21.5287 15.2601 21.4149 15.1577C21.3238 15.0723 21.21 15.0325 21.0791 15.0325C21.045 15.0325 21.0108 15.0325 20.9767 15.0381C20.8003 15.0609 20.6694 15.1463 20.584 15.2772C20.5271 15.3739 20.493 15.4877 20.493 15.6243C20.493 15.6755 20.4987 15.7324 20.5043 15.7837L20.7491 17.5137L18.8141 17.7982L18.5694 16.0682C18.541 15.869 18.4727 15.7097 18.3589 15.6072C18.2678 15.5219 18.154 15.4763 18.0231 15.4763C17.9947 15.4763 17.9605 15.4763 17.9321 15.482C17.7499 15.5105 17.6134 15.5902 17.528 15.7211C17.4654 15.8178 17.4369 15.9316 17.4369 16.0682C17.4369 16.1194 17.4426 16.1763 17.4483 16.2332L18.1085 20.7404C18.1369 20.9453 18.2109 21.1047 18.3304 21.2071C18.4215 21.2868 18.541 21.3266 18.6719 21.3266C18.706 21.3266 18.7459 21.3209 18.7857 21.3152C18.9507 21.2925 19.0816 21.2128 19.1613 21.0762C19.2182 20.9795 19.2467 20.8656 19.2467 20.7347C19.2467 20.6835 19.241 20.6266 19.2353 20.5697L18.9621 18.7885L20.897 18.5039L21.1702 20.2852C21.1986 20.49 21.2726 20.6437 21.3864 20.7518C21.4775 20.8315 21.597 20.877 21.7279 20.877C21.762 20.877 21.7962 20.877 21.8303 20.8713C22.0068 20.8486 22.1376 20.7689 22.2173 20.6323C22.2742 20.5356 22.3027 20.4217 22.3027 20.2909C22.3027 20.2396 22.297 20.1827 22.2913 20.1258L21.6312 15.6243Z" fill="white"/>
<path d="M0 15.374L0.130891 14.7138L0.466655 13.035L7.21039 11.9537L6.75511 14.3382L0 15.374Z" fill="#EC473F"/>
</g>
<defs>
<linearGradient id="paint0_linear_1173_11821" x1="23.9616" y1="14.3337" x2="30.8464" y2="21.9186" gradientUnits="userSpaceOnUse">
<stop stop-color="#F8C51B"/>
<stop offset="1" stop-color="#E78F24"/>
</linearGradient>
<linearGradient id="paint1_linear_1173_11821" x1="16.2857" y1="15.2613" x2="23.3857" y2="20.963" gradientUnits="userSpaceOnUse">
<stop stop-color="#1F8ACA"/>
<stop offset="1" stop-color="#01659E"/>
</linearGradient>
<linearGradient id="paint2_linear_1173_11821" x1="12.4146" y1="15.5709" x2="12.4146" y2="21.7922" gradientUnits="userSpaceOnUse">
<stop stop-color="#269F49"/>
<stop offset="1" stop-color="#008A54"/>
</linearGradient>
<linearGradient id="paint3_linear_1173_11821" x1="3.38894" y1="14.9619" x2="4.45883" y2="21.4216" gradientUnits="userSpaceOnUse">
<stop stop-color="#D81F32"/>
<stop offset="1" stop-color="#BB2637"/>
</linearGradient>
<clipPath id="clip0_1173_11821">
<rect width="32" height="11.0347" fill="white" transform="translate(0 10.9749)"/>
</clipPath>
</defs>
</svg>
